Patient4_TMGait_0pt7_01_right_13_EMG.mot
version=1
nRows=13
nColumns=33
inDegrees=no
endheader
time	1LAddLong	2LGlutMax	3LGlutMed	4LIliopsoas	5LSemiMemb	6LBicFemLong	7LRecFem	8LVastMed	9LVastLat	10LGasMed	11LTibAnt	12lTibPost	13LPeroneusLong	14LSol	15LExtDigLong	16LFlexDigLong	17RAddLong	18RGlutMax	19RGlutMed	20RIliopsoas	21RSemiMemb	22RBicFemLong	23RRecFem	24RVastMed	25RVastLat	26RGasMed	27RTibAnt	28RTibPost	29RPeroneusLong	30RSol	31RExtDigLong	32RFlexDigLong
15.16	-0.021362	0.26032	0.26215	0.007935	-0.21454	0.089417	-0.14465	0.017853	-0.34561	-0.02533	0.017548	-0.019989	0.10788	-0.007629	-0.090637	0.016785	-0.018616	-0.20325	-0.17105	-0.10788	0.032959	-0.12833	-0.43869	-0.04364	0.006561	-0.04715	-0.010986	0.001984	-0.000458	-0.13931	0	-0.019531
15.161	0.019073	0.31403	0.26184	0.005798	-0.13275	0.087128	-0.16052	0.00946	-0.55664	-0.028076	-0.006714	-0.023804	0.26428	0.072784	-0.058746	0.013123	-0.025482	-0.20447	0.041351	-0.10986	-0.079041	-0.16205	-0.48721	0.018921	0.037079	-0.066528	-0.013885	0.00061	-0.078888	0.19714	-0.00412	-0.019531
15.162	0.055389	0.31281	0.27298	0.013733	-0.037231	0.040741	-0.073242	-0.011444	-0.48935	-0.040131	-0.005798	-0.018921	-0.001984	0.044708	-0.016479	-0.003357	-0.028687	-0.16785	-0.004272	-0.047455	0.36438	-0.072784	-0.4985	-0.006866	0.052338	-0.055237	-0.009766	0.001526	0.14923	0.63004	-0.001678	-0.010223
15.163	0.083008	0.33447	0.29831	0.020752	0.10025	-0.013428	-0.045624	-0.0177	-0.35904	-0.048523	-0.002136	-0.019226	-0.20569	0.058746	0.042114	0.010986	-0.011139	-0.18433	-0.47089	0.002594	0.30029	0.020599	-0.49027	-0.04715	0.014496	-0.038757	0.02533	0.001831	0.17777	0.76355	-0.003357	-0.013123
15.164	0.085754	0.40314	0.26291	-0.000763	0.27542	0.00885	-0.11414	-0.021515	-0.21164	-0.045471	-0.041199	-0.019379	0.012512	0.008698	0.0177	-0.005188	-0.038452	-0.20233	-0.28183	0.10696	0.061646	0.1181	-0.54901	0.054626	0.036011	0	0.058289	0.003357	0.21347	0.7753	-0.002899	-0.011597
15.165	0.07782	0.46997	0.15228	-0.002441	0.17014	0.052643	-0.21072	-0.013733	-0.13001	-0.044556	-0.041199	-0.025787	0.001526	-0.032349	0.042267	0.007782	-0.042267	-0.2121	0.16785	0.098114	-0.094147	0.22568	-0.50598	-0.0177	0.03418	-0.018005	0.076447	-0.001526	0.21606	0.62546	-0.003662	-0.007019
15.166	0.067902	0.42709	0.053864	-0.003662	0.099945	0.20798	-0.25787	-0.009308	-0.15442	-0.036621	-0.022888	-0.015869	-0.29831	-0.004272	0.078888	0.014954	-0.022583	-0.2272	-0.15884	-0.010986	0.13534	0.074768	-0.44388	-0.029907	0.010986	-0.031433	0.073242	-0.000763	0.13046	-0.037537	-0.001221	-0.011139
15.167	0.062866	0.41397	0.035706	0.019379	0.1236	0.18005	-0.22446	-0.02243	-0.33569	-0.035248	-0.023499	-0.018311	0.16632	0.053558	0.051117	0.010376	0.002747	-0.28305	0.11581	-0.059509	0.20813	-0.017242	-0.46707	-0.027618	0.003204	-0.02182	0.053558	0.003357	0.070038	-0.51849	-0.00061	-0.000458
15.168	0.041046	0.37613	0.04715	0.021362	0.13077	0.090485	-0.1207	-0.031433	-0.40115	-0.032959	-0.017853	-0.016632	0.30762	0.03067	-0.005951	0.008545	0.010681	-0.24796	0.28534	-0.097656	0.26154	-0.000458	-0.44174	-0.03891	-0.012512	-0.020447	0.065002	0.012207	0.063019	-0.49362	-0.000763	-0.008392
15.169	0.021515	0.28503	0.063019	0.011749	0.094299	0.12375	-0.056458	-0.006866	-0.077362	-0.021973	0.005188	-0.013885	0.32394	0.007935	-0.039978	0.016174	0.016327	-0.31372	-0.19333	-0.041351	0.21423	0.035095	-0.4808	-0.048828	0.014191	-0.001221	0.10315	0.009308	-0.024567	-0.01358	0.006561	-0.000458
15.17	0.004425	0.063171	-0.075073	0.010223	0.040283	0.1326	-0.023956	0.014648	0.12787	-0.025024	0.016022	-0.020142	0.13748	0.036926	0.001984	0.010071	0.019379	-0.25833	0.075836	0.014191	0.14771	0.019836	-0.49942	-0.033875	0.008545	0.006409	0.1712	0.008698	-0.067902	0.23102	-0.00061	0.002747
15.171	-0.005798	-0.0737	-0.19348	-0.012207	0.039978	0.25101	-0.038452	-0.000305	0.046234	-0.016174	0.005798	-0.022125	-0.2092	0.091248	0.020905	0.008545	0.026398	-0.32303	-0.11246	0.17792	0.11795	0.019531	-0.50797	0.004272	0.018921	0.004425	0.17197	0.003052	-0.057068	0.11261	0.000458	0.001068
15.172	-0.015259	-0.087128	-0.19592	-0.025177	0.057068	0.31342	-0.018005	0.003967	-0.071716	-0.019531	-0.04364	-0.018463	-0.009918	0.13092	0.027313	0.013428	0.013428	-0.18265	0.076294	0.29358	0.23605	0.035858	-0.49698	-0.063477	0.01297	0.00061	0.10407	0.007629	-0.076752	0.10376	-0.001526	-0.007782
